<svg
      xmlns="http://www.w3.org/2000/svg"
      width="200"
      height="200"
      fill="#000"
      version="1.1"
      viewBox="0 0 512 512"
      xmlSpace="preserve"
    >
      <g>
        <path
          fill="#C8FEFF"
          d="M399.315 144.699v-37.956h-286.63v37.956c-14.797 0-26.793 11.995-26.793 26.793v313.715c0 14.797 11.995 26.793 26.793 26.793h286.63c14.797 0 26.793-11.995 26.793-26.793V171.492c0-14.797-11.996-26.793-26.793-26.793zM256 436.472c-59.763 0-108.218-48.443-108.218-108.218 0-59.763 48.454-108.218 108.218-108.218s108.218 48.454 108.218 108.218c0 59.774-48.455 108.218-108.218 108.218z"
        ></path>
        <path
          fill="#51C0C2"
          d="M304.803 16.902v11.23c0 9.34-7.562 16.902-16.902 16.902h-60.574c-9.329 0-16.902-7.562-16.902-16.902v-11.23c0-9.34 7.573-16.902 16.902-16.902h60.574c9.34 0 16.902 7.562 16.902 16.902z"
        ></path>
        <path
          fill="#3C95AB"
          d="M366.705 45.033h-221.41c-18.016 0-32.61 14.606-32.61 32.61v29.1h286.63v-29.1c0-18.003-14.595-32.61-32.61-32.61z"
        ></path>
        <path
          fill="#FF9A52"
          d="M256 220.036c59.763 0 108.218 48.454 108.218 108.218 0 59.775-48.454 108.218-108.218 108.218s-108.218-48.443-108.218-108.218c0-59.763 48.455-108.218 108.218-108.218z"
        ></path>
        <g fill="#700D00">
          <circle cx="256" cy="397.087" r="8.44"></circle>
          <circle cx="304.668" cy="376.933" r="8.44"></circle>
          <circle cx="324.833" cy="328.254" r="8.44"></circle>
          <circle cx="304.668" cy="279.586" r="8.44"></circle>
          <circle cx="256" cy="259.421" r="8.44"></circle>
          <circle cx="207.332" cy="279.586" r="8.44"></circle>
          <circle cx="187.167" cy="328.254" r="8.44"></circle>
          <circle cx="207.332" cy="376.933" r="8.44"></circle>
        </g>
        <g fill="#FFF">
          <path d="M392.35 486.681h-33.758c-4.661 0-8.44-3.778-8.44-8.44s3.779-8.44 8.44-8.44h33.758c4.661 0 8.44 3.778 8.44 8.44s-3.778 8.44-8.44 8.44zM324.833 486.681H119.65c-4.661 0-8.44-3.778-8.44-8.44s3.779-8.44 8.44-8.44h205.183c4.661 0 8.44 3.778 8.44 8.44s-3.778 8.44-8.44 8.44z"></path>
        </g>
        <path
          fill="#51C0C2"
          d="M400.858 115.188H111.142c-4.661 0-8.44-3.778-8.44-8.44s3.779-8.44 8.44-8.44h289.716c4.661 0 8.44 3.778 8.44 8.44s-3.779 8.44-8.44 8.44z"
        ></path>
        <path
          fill="#FFF"
          d="M365.56 153.143H146.44c-4.661 0-8.44-3.778-8.44-8.44s3.779-8.44 8.44-8.44h219.12c4.661 0 8.44 3.778 8.44 8.44s-3.779 8.44-8.44 8.44z"
        ></path>
      </g>
    </svg>